<svg xmlns="http://www.w3.org/2000/svg" xmlns:xlink="http://www.w3.org/1999/xlink" version="1.1" x="0px" y="0px" viewBox="0 0 64 80" enable-background="new 0 0 64 64" xml:space="preserve">
    <g>
        <g>
            <g>
                <path fill="#0795df" d="M16,18.2c0,1.2-1,2.2-2.2,2.2c-1.2,0-2.2-1-2.2-2.2c0-1.2,1-2.2,2.2-2.2C15,16,16,17,16,18.2z"/>
            </g>
        <g>
            <path fill="#0795df" d="M25.4,18.2c0,1.2-1,2.2-2.2,2.2c-1.2,0-2.2-1-2.2-2.2c0-1.2,1-2.2,2.2-2.2C24.4,16,25.4,17,25.4,18.2z"/>
        </g>
        <g>
            <path fill="#0795df" d="M34.8,18.2c0,1.2-1,2.2-2.2,2.2s-2.2-1-2.2-2.2c0-1.2,1-2.2,2.2-2.2S34.8,17,34.8,18.2z"/>
        </g>
            <path fill="#0795df" d="M38.4,1.1H8c-1.6,0-3,0.6-4.1,1.7C2.8,3.9,2.2,5.4,2.2,6.9v22.5c0,3.2,2.6,5.8,5.8,5.8h0.7v9.5c0,0.7,0.3,1.4,0.8,1.8    c0.5,0.4,1.1,0.7,1.7,0.7c0.8,0,1.6-0.4,2.1-1.2l6.9-10.8h4.1c0.3-1.1,0.8-2.2,1.3-3.3h-7.2L12,42V32H8c-1.4,0-2.6-1.2-2.6-2.6    V6.9c0-0.7,0.3-1.3,0.8-1.8C6.7,4.6,7.3,4.4,8,4.4h30.4c1.4,0,2.6,1.2,2.6,2.6v7.2c0.5-0.1,1.1-0.2,1.6-0.2c0.6,0,1.1,0.1,1.6,0.2    V6.9C44.3,3.7,41.6,1.1,38.4,1.1z"/>
        </g>
        <g>
            <g>
                <path fill="#0795df" d="M34.8,18.2c0,1.2-1,2.2-2.2,2.2s-2.2-1-2.2-2.2c0-1.2,1-2.2,2.2-2.2S34.8,17,34.8,18.2z"/>
            </g>
        <g>
            <path fill="#0795df" d="M25.4,18.2c0,1.2-1,2.2-2.2,2.2c-1.2,0-2.2-1-2.2-2.2c0-1.2,1-2.2,2.2-2.2C24.4,16,25.4,17,25.4,18.2z"/>
        </g>
        <g>
            <path fill="#0795df" d="M16,18.2c0,1.2-1,2.2-2.2,2.2c-1.2,0-2.2-1-2.2-2.2c0-1.2,1-2.2,2.2-2.2C15,16,16,17,16,18.2z"/>
        </g>
        </g>
            <path fill="#0795df" d="M61.3,56.9c-0.2-0.3-0.3-0.6-0.5-0.9c-0.9-1.5-1.6-2.9-1.9-4.7c-0.9-5.6,1.5-11.1-0.5-16.6c-1.5-4.2-4.7-7.9-8.8-9.9   c-1-0.5-2.1-0.9-3.3-1.2v-3.8c0-2.1-1.7-3.7-3.7-3.7s-3.7,1.7-3.7,3.7c0,0,0,3.8,0,3.8c0-0.1-4.5,1.8-4.9,2.1c-1.6,1-3,2.3-4.2,3.7   c-1.6,2-2.9,4.3-3.6,6.8c-0.7,2.6-0.1,5.1,0.1,7.7c0.2,3,0.6,6.5-0.5,9.4c-0.4,0.9-0.9,1.8-1.4,2.7c-0.2,0.3-0.3,0.6-0.5,0.9   c-0.4,0.4-0.6,0.9-0.6,1.5c0,1.8,1.9,2.9,6.5,3.7c3.4,0.6,7.9,0.9,12.7,0.9c4.8,0,9.3-0.3,12.7-0.9c4.5-0.8,6.5-1.9,6.5-3.7   C61.8,57.8,61.7,57.3,61.3,56.9z M42.6,18.1c1,0,1.9,0.8,1.9,1.9c0,1-0.8,1.9-1.9,1.9s-1.9-0.8-1.9-1.9   C40.8,18.9,41.6,18.1,42.6,18.1z M59.6,59c-1.3,0.9-6.9,2.2-17,2.2c-10.1,0-15.7-1.3-17-2.2c-0.2-0.1-0.3-0.4-0.3-0.6   c0-0.2,0.1-0.5,0.3-0.6c1.1-0.8,5.5-1.9,13.3-2.1c0,2,1.7,3.6,3.7,3.6s3.7-1.6,3.7-3.6c7.8,0.3,12.2,1.4,13.3,2.1   c0.2,0.1,0.3,0.4,0.3,0.6C59.9,58.6,59.8,58.8,59.6,59z"/>
        </g>
</svg>