<svg xmlns="http://www.w3.org/2000/svg" width="16.721" height="16.721" viewBox="0 0 16.721 16.721">
    <g id="Group_12" data-name="Group 12" transform="translate(0)">
        <path id="Path_4" data-name="Path 4" d="M2602.687,966.963a8.36,8.36,0,1,0,8.36,8.36A8.36,8.36,0,0,0,2602.687,966.963Zm3.6,11.543-.485.488a.689.689,0,0,1-.963-.1l-1.792-1.776a.706.706,0,0,1-.132-.931l-1.09-1.029-.787.826a.615.615,0,0,1-.884.854l-2.044-2.07a.615.615,0,0,1,.866-.872l2.2-2.3a.614.614,0,0,1,.913-.816l2.045,2.071a.615.615,0,0,1-.876.863l-.026-.027-.895.935,1.07,1.063.021-.022a.691.691,0,0,1,.965.1l1.79,1.775A.69.69,0,0,1,2606.291,978.506Z" transform="translate(-2594.326 -966.963)" fill="#18b7ea"/>
    </g>
</svg>